# xmcd
#
# Track frame offsets:
#	150
#	11924
#	22198
#	32365
#	44574
#	56475
#	69719
#	81940
#	91849
#	103866
#	112629
#	126632
#	139675
#	151667
#	164423
#	176765
#	188494
#	203393
#	214498
#	226679
#
# Disc length: 3183
#
# Revision: 3
# Processed by: cddbd v1.5.1PL0 Copyright (c) Steve Scherf et al.
# Submitted via: audiograbber 1.83.01
# Normalized: r2:DSETVAR1
#
DISCID=0b0c6d14
DTITLE=Various Artist - 120% Heroes Of Country - CD 6
DYEAR=2004
DGENRE=Country
TTITLE0=Lynn Anderson - You're My Man
TTITLE1=Dolly Parton - Release Me
TTITLE2=Patsy Cline - Three Cigarettes In The Ashtray
TTITLE3=Billie Jo Spears - What I've Got In Mind
TTITLE4=Skeeter Davis - The End Of The World
TTITLE5=Janie Fricke - He's A Heartache
TTITLE6=Sammi Smith - Send Me The Pillow That You Dream On
TTITLE7=Kitty Wells - I Can't Stop Loving You
TTITLE8=Wanda Jackson - Right Or Wrong
TTITLE9=Sandy Posey - Born A Woman
TTITLE10=Barbara Fairchild - Teddy Bear Song
TTITLE11=Donna Fargo - Daddy
TTITLE12=Connie Francis - Among My Souvenirs
TTITLE13=Dottie West - I Fall To Pieces
TTITLE14=Jeannie Pruett - Satin Sheets
TTITLE15=Wilma Burgess - Misty Blues
TTITLE16=Donna Fargo - That Was Yesterday
TTITLE17=Anne Murray - The Last Thing On My Mind
TTITLE18=Billie Jo Spears - Look What They've Done To My Song Ma
TTITLE19=Dolly Parton - Two Little Orphans
EXTD=
EXTT0=
EXTT1=
EXTT2=
EXTT3=
EXTT4=
EXTT5=
EXTT6=
EXTT7=
EXTT8=
EXTT9=
EXTT10=
EXTT11=
EXTT12=
EXTT13=
EXTT14=
EXTT15=
EXTT16=
EXTT17=
EXTT18=
EXTT19=
PLAYORDER=
